<svg width="103" height="77" fill="none" xmlns="http://www.w3.org/2000/svg"><path d="M32.804 30.914l13.203-27.05c.752-1.61-.43-3.543-2.147-3.543h-9.017c-.751 0-1.502.322-1.932.966L4.573 39.502C1.567 43.901.064 49.377.708 55.174 1.89 66.552 11.443 75.57 22.928 76.106c13.526.644 24.69-10.09 24.69-23.508-.108-9.769-6.227-18.248-14.815-21.684zm54.96 0l13.203-27.05c.752-1.61-.429-3.543-2.147-3.543h-9.016c-.752 0-1.503.322-1.932.966l-28.34 38.215c-3.005 4.4-4.508 9.875-3.864 15.672 1.181 11.378 10.735 20.396 22.22 20.932 13.526.644 24.69-10.09 24.69-23.508-.109-9.769-6.228-18.248-14.815-21.684z" fill="#223865"/></svg>