<svg width="19" height="19" fill="none" xmlns="http://www.w3.org/2000/svg"><path fill-rule="evenodd" clip-rule="evenodd" d="M5.071 16.484a1.216 1.216 0 010 2.429 1.216 1.216 0 010-2.43zm10.583 0c.671 0 1.216.544 1.216 1.214a1.216 1.216 0 11-1.216-1.214zM1.06.588l1.952.338a.707.707 0 01.58.635l.221 2.628H5.03l1.505.002h2.328l1.164.002h1.538l.892.001h.208l.587.001h.184l.68.001h.156l.574.001h.131l.365.001h.112l.407.001h.339l.076.001.268.001h.216l.047.001h.159l.033.001h.087l.025.001h.08l.042.002h.045l.02.002h.003l.012.001c.522.076.982.349 1.295.77.314.419.445.936.37 1.454l-.89 6.152a2.404 2.404 0 01-2.367 2.054H5.476a2.403 2.403 0 01-2.383-2.198L2.234 2.22.82 1.976a.705.705 0 01-.574-.814.713.713 0 01.813-.574zm3.385 5.009H3.93l.566 6.728a.978.978 0 00.981.907H15.72a.99.99 0 00.975-.848l.892-6.153a.55.55 0 00-.105-.411.544.544 0 00-.364-.217h-.048l-.102.001h-.07l-.532.002h-1.603l-1.426-.001h-.26l-.806-.001h-.278l-.855-.001h-.29l-.59-.001h-.297L9.063 5.6H7.265l-.295-.001h-.873l-.285-.001H4.708l-.264-.001zm9.769 2.06a.704.704 0 010 1.408h-2.6a.703.703 0 110-1.408h2.6z" fill="#223865"/></svg>