<svg width="30" height="30" fill="none" xmlns="http://www.w3.org/2000/svg"><path d="M6.299 14.82h2.276c.16 0 .216.107.126.24l-4.166 6.1c-.09.133-.236.133-.327 0l-4.165-6.1c-.09-.133-.034-.24.126-.24h2.279a12.226 12.226 0 014.226-9.168l2.521 2.912A8.379 8.379 0 006.3 14.819zm8.46-8.297v2.276c0 .16-.108.216-.24.126L8.418 4.759c-.133-.09-.133-.236 0-.327l6.1-4.165c.134-.09.241-.034.241.126v2.278A12.226 12.226 0 0123.927 6.9l-2.911 2.52a8.38 8.38 0 00-6.257-2.896zm14.425 8.458h-2.279a12.228 12.228 0 01-4.227 9.169l-2.52-2.912a8.377 8.377 0 002.896-6.257H20.78c-.16 0-.217-.107-.127-.24l4.166-6.1c.09-.132.237-.132.327 0l4.165 6.1c.09.133.034.24-.126.24zm-14.589 8.297v-2.276c0-.16.108-.217.24-.126l6.101 4.165c.133.09.133.238 0 .328l-6.1 4.165c-.133.09-.24.034-.24-.127V27.13a12.23 12.23 0 01-9.168-4.227l2.911-2.52a8.374 8.374 0 006.256 2.896z" fill="#223865"/></svg>