<svg width="23" height="30" fill="none" xmlns="http://www.w3.org/2000/svg"><path d="M13.44 4.473a.978.978 0 00-1.447 0s-.333.372-.86.979h-.001A39.664 39.664 0 007.592.56a.978.978 0 00-1.488 0C5.576 1.216.98 6.655.98 9.755a6.132 6.132 0 003.316 5.498 10.76 10.76 0 00-1.36 4.548 9.78 9.78 0 1019.563 0c0-5.086-8.129-14.29-9.058-15.328zM2.935 9.755c0-1.565 2.162-4.812 3.913-7.013 1.75 2.2 3.912 5.448 3.912 7.013a4.04 4.04 0 01-3.912 4.177 4.04 4.04 0 01-3.913-4.177zm9.782 17.871a7.826 7.826 0 01-7.826-7.825 9.263 9.263 0 011.311-3.971c.214.034.43.054.646.059a5.996 5.996 0 005.869-6.114A6.387 6.387 0 0012.1 7.38l.617-.763c2.719 3.179 7.825 9.84 7.825 13.185a7.826 7.826 0 01-7.825 7.826z" fill="#223865"/></svg>