<svg width="33" height="34" fill="none" xmlns="http://www.w3.org/2000/svg"><circle cx="16.503" cy="16.889" r="16.149" fill="#223865"/><path d="M16.503 11.9c1.624 0 1.817.007 2.46.036 1.648.075 2.419.857 2.494 2.495.03.641.035.834.035 2.459s-.006 1.817-.035 2.459c-.076 1.635-.844 2.42-2.495 2.494-.642.03-.834.036-2.46.036-1.624 0-1.817-.006-2.458-.036-1.654-.075-2.42-.861-2.495-2.495-.03-.641-.035-.834-.035-2.459s.006-1.817.035-2.459c.076-1.636.844-2.42 2.495-2.495.642-.028.834-.035 2.459-.035zm0-1.096c-1.653 0-1.86.007-2.51.036-2.21.101-3.437 1.328-3.539 3.54-.03.65-.037.856-.037 2.51 0 1.652.007 1.86.037 2.508.101 2.21 1.327 3.439 3.54 3.54.649.03.856.037 2.509.037 1.652 0 1.86-.008 2.509-.037 2.208-.101 3.44-1.328 3.539-3.54.03-.649.037-.856.037-2.509s-.007-1.86-.036-2.509c-.1-2.208-1.328-3.438-3.54-3.54-.65-.03-.857-.036-2.51-.036zm0 2.96a3.125 3.125 0 100 6.25 3.125 3.125 0 000-6.25zm0 5.154a2.028 2.028 0 110-4.057 2.028 2.028 0 010 4.057zm3.248-6.007a.73.73 0 100 1.46.73.73 0 000-1.46z" fill="#fff"/></svg>