<svg width="712" height="619" fill="none" xmlns="http://www.w3.org/2000/svg"><path d="M178.989 168.858c.611-.205 1.372-.794 2.133-1.383l-2.774-1.077c.761-.589 1.373-.794 1.672-1.563 1.685-.229 2.774 1.078 4.296-.1.298-.768-1.238-.923-1.551-1.487-.313-.564-.164-.948-.328-1.896 1.074-.025 1.686-.23 2.611.129 1.387.539 1.999.335 3.073.31 2.148-.05 3.983-.664 6.742-.919-.313-.564-.014-1.332-.327-1.896 1.074-.025 2.148-.05 2.76-.255.462.18.611-.205 1.074-.025 2.162 1.282 3.684.105 5.057-.689.612-.205.761-.589 1.223-.409 3.222-.075 5.698 1.771 8.621 2.465.463.179.776.743 1.238.923 2.013 1.667 4.012 2.001 6.31 1.567 2.297-.435 4.907-.305 7.219.593 1.387.539 2.924.694 4.296-.1.463.18.925.359 1.7 1.103 1.985-.998 3.969-1.996 6.892-1.303 1.537.155 2.611.13 3.998.669 2.923.693 5.683.439 8.443.184 3.834-.28 8.13-.38 11.814-.275 2.611.13 4.908-.305 7.668-.559 2.76-.255 5.982-.33 8.905.364-.448 1.152-1.984.998-2.596 1.202-2.76.255-5.982.33-9.204.405-1.536-.155-2.759.255-3.983.664-2.297.434-4.445.484-7.056.355-3.684-.105-7.667.559-11.039 1.018-.462-.179-.611.205-.611.205-.299.769.163.948.626 1.128 1.387.539 2.774 1.078 3.848 1.053l.462.179c2.775 1.078 5.221.26 7.369.21 3.685.104 7.519-.175 11.039-1.019.612-.205 1.074-.025 1.537.155 3.535.489 6.743-.919 10.114-1.378 1.223-.41 2.447-.819 4.132-1.049 1.686-.229 3.059-1.023 3.656-2.56l1.387.539c.462.18 1.074-.025 1.373-.794.298-.768-.164-.948-1.089-1.307.612-.205.761-.589 1.224-.409 2.759-.255 5.818-1.278 8.89-.969 2.611.13 4.446-.484 6.907.03.462.179.612-.205.612-.205 1.835-.614 3.52-.844 5.832.055 1.821-1.947 4.446-.485 6.594-.535.313.564-.299.769-.299.769l-.462-.18c-2.283 1.767-5.505 1.842-8.727 1.917l-1.835.614c-1.074.025-1.835.614-2.76.255-1.074.025-2.298.434-2.909.639-.612.204-1.835.614-2.283 1.766.462.18.313.564.775.744 1.85.719 3.998.669 5.683.439 3.059-1.023 6.281-1.098 9.652-1.558 2.298-.434 4.446-.484 6.594-.534l-.149.384.924.36.15-.385-.313-.564-.463-.179c.612-.205.761-.589 1.224-.41 1.998.335 3.833-.279 5.206-1.073 1.373-.793 2.596-1.203 3.67-1.228 1.074-.025 2.297-.434 3.521-.843 0 0 .149-.385.761-.589l-1.387-.539c-2.148.05-4.147-.284-5.833-.055-.612.205-1.686.23-2.297.435-1.835.614-3.983.663-5.982.329l-.463-.179c.911-.974 2.76-.255 3.671-1.228l1.223-.41c-.014-1.332 1.06-1.357 2.134-1.382 2.461.514 4.296-.1 6.593-.534.612-.205 1.686-.23 2.148-.05.463.179 1.074-.026 1.223-.41 1.985-.998 4.282-1.432 6.893-1.303 1.074-.025 2.297-.434 3.371-.459.612-.205.925.359 1.387.539.462.18 1.536.155 1.999.334-1.224.41-1.985.998-3.059 1.023.477 1.513.79 2.077 1.402 1.872 1.536.155 2.76-.255 4.445-.484 1.075-.025 1.836-.614 3.223-.075 0 0 .462.179.611-.205 1.835-.614 3.67-1.228 5.818-1.278 1.522-1.178 2.909-.639 4.759.08.91-.974-.164-.949-.477-1.513 1.686-.229 2.909-.638 4.446-.484 1.074-.025 2.148-.05 2.923.694.462.179.925.359 1.536.154.761-.589 2.298-.434 3.059-1.023.611-.204 1.223-.409 1.999.334l-1.224.41c-1.373.793-1.209 1.742-.12 3.049 1.835-.614 3.983-.664 5.818-1.278 2.447-.818 4.445-.484 7.07.978.776.744 1.85.719 2.611.13l.447-1.153-.924-.359.149-.385c.612-.204 1.223-.409 1.686-.229 1.074-.025 1.686-.23 2.76-.255 1.223-.409 2.909-.639 4.445-.484 1.536.154 2.61.129 4.147.284 1.536.155 2.447-.819 3.67-1.228 1.074-.025 2.297-.434 3.222-.075 1.999.334 3.834-.28 5.206-1.073 1.253 2.255 1.715 2.435 3.699 1.437.15-.384.612-.205.612-.205s-.149.385.313.564l.612-.205c1.223-.409 2.297-.434 3.52-.843 1.686-.23 3.073.309 4.46.848.463.18.776.744.626 1.128.313.564.477 1.512.641 2.46-.761.589-1.06 1.358-1.821 1.947-.149.384.015 1.332 1.089 1.307.462.18.462.18 1.074-.025 1.686-.229 3.371-.459 4.595-.868 1.372-.794 2.909-.639 4.146.284 2.298-.434 4.133-1.048 6.594-.534 2.447-.819 5.519-.51 8.115-1.712-.149.384.164.948.015 1.332.313.564.775.744 1.551 1.487 1.536.155 3.222-.075 4.758.08.313.564.164.948.477 1.512.313.564 1.088 1.308 1.7 1.103 1.074-.025 1.835-.614 2.61.13-1.984.998-4.281 1.432-6.742.918-2.461-.514-4.759-.08-6.907-.03-.612.205-1.686.23-1.835.614-1.059 1.358-2.134 1.383-3.67 1.228-2.148.05-4.445.485-5.804 2.611-.298.768.015 1.332.939 1.692 1.388.539 2.462.514 3.849 1.052.611-.204 1.372-.793 1.984-.998 2.134-1.382 4.744-1.253 7.518-.175.463.18 1.387.539 1.999.334.612-.204.761-.588 1.522-1.177l.299-.769.924.359c1.551 1.487 3.237 1.258 5.072.644.612-.205.761-.589 1.373-.794.611-.204.761-.589 1.223-.409 3.073.309 4.58-2.201 6.878-2.635l.298-.769s-.775-.744-.924-.359c-1.074.025-2.149.05-2.909.639l-1.835.614c-.627-1.128-1.402-1.872-1.566-2.82 2.298-.434 4.908-.305 6.892-1.303.612-.205 1.074-.025 2.149-.05 1.685-.23 3.371-.459 4.907-.305 1.074-.025 1.835-.614 3.073.31l1.074-.025c.761-.589 1.671-1.563 2.432-2.152.612-.204 1.537.155 2.148-.05 1.224-.409 1.522-1.177 2.283-1.766.925.359 1.999.334 2.611.129-.299.769-.135 1.717-.896 2.306-1.06 1.358-.583 2.87.207 4.946.477 1.512 1.103 2.64 1.58 4.152.924.359 1.849.719 2.61.13 1.373-.794 2.745-1.588 4.58-2.201 1.388.538.79 2.076 1.566 2.819l3.236 1.258c-.135 1.717.342 3.229-1.642 4.227-.612.205-.299.769-.91.973 1.088 1.308 2.624 1.462 3.549 1.822l.939 1.691c.178 2.281 2.49 3.179 4.489 3.514 1.536.154 3.386.873 4.773 1.412.925.359 2.461.514 3.073.309 1.835-.614 3.52-.843 4.58-2.201.91-.973 3.208-1.408 4.431-1.817 2.774 1.078 2.49 3.179 4.041 4.666-1.074.025-2.298.435-2.909.639-.299.769-.135 1.717-1.821 1.947-.612.204-.761.589-.597 1.537.164.948.626 1.128 1.551 1.487.925.359 1.536.155 2.461.514 1.999.334 3.222-.075 4.595-.869.761-.589 1.372-.793 1.984-.998 1.223-.409 1.522-1.178 2.895-1.971 1.074-.025 1.998.334 3.535.489.597-1.538 2.432-2.152 4.431-1.817.925.359 1.536.154 2.61.129 2.611.13 3.222-.075 4.58-2.201-.626-1.128-1.401-1.871-2.489-3.179.91-.973 1.358-2.126 2.119-2.715-.626-1.128-1.402-1.871-2.177-2.615-.775-.743-2.013-1.667-2.789-2.41-1.237-.923-2.162-1.283-3.862-2.386-.313-.563-.627-1.127-1.089-1.307-.313-.564-.775-.744-1.088-1.308.298-.768.597-1.537.433-2.485 1.999.334 3.848 1.053 4.788 2.745 0 0 .313.564.775.743 1.536.155 2.162 1.283 2.789 2.411.313.564 1.237.923 1.55 1.487 1.387.539 2.625 1.462 4.012 2.001l1.387.539c1.537.154 2.775 1.078 4.162 1.617.924.359 1.237.923 1.864 2.051-.299.768-1.06 1.357-1.209 1.742-.15.384.626 1.127.939 1.691-.149.385-.612.205-.761.589-1.224.41-1.835.614-1.358 2.126.163.949.327 1.897.028 2.665-.597 1.538-1.507 2.511-2.104 4.048.313.564 1.55 1.487 1.102 2.64-.149.384.164.948.627 1.128 1.237.923 1.864 2.051 2.027 2.999.313.564.626 1.128 1.238.924.925.359 1.223-.41 1.373-.794.149-.384.448-1.153.135-1.717.149-.384.298-.768.134-1.717 2.611.13 3.699 1.437 5.25 2.925.776.743.939 1.691 1.565 2.819-.447 1.153-.448 1.153.805 3.409 3.222-.075 6.444-.15 9.815-.609.463.179 1.238.923 1.7 1.102 1.701 1.103 2.312.899 3.685.105.149-.384.761-.589.91-.973 1.387.539 3.237 1.257 4.908-.305.164.948.014 1.333.014 1.333-1.059 1.357-1.806 3.279-3.79 4.277-.612.205-.761.589-.91.973-1.672 1.562-2.269 3.1-2.091 5.38-.298.769.477 1.512.641 2.461-1.209 1.741-2.731 2.919-4.715 3.918-1.373.793-2.895 1.971-3.805 2.944-1.06 1.358-1.97 2.331-3.805 2.945-.612.205-1.373.794-1.672 1.562-1.059 1.358-.269 3.434-.867 4.971-.298.769.328 1.896 1.416 3.204l.313.564c-.284 2.101-1.343 3.459-2.552 5.2-.299.769-1.522 1.178-2.596 1.203-1.074.025-2.148.05-3.834.28-2.76.255-4.744 1.253-5.64 3.559l-.299.768-.149.384c.775.744 1.402 1.872 2.177 2.616-1.373.793-2.596 1.202-3.357 1.791-.448 1.153.939 1.692 1.103 2.64-.15.385-.612.205-.761.589l.149-.384c-.612.205-1.536-.155-1.999-.334l-.924-.36-.299.769c-.91.973-2.148.05-3.058 1.023-.15.385-.448 1.153.327 1.897 1.238.923 2.312.898 3.848 1.053l1.224-.41c1.522-1.178 3.506-2.176 4.879-2.969 1.372-.794 3.058-1.024 4.744-1.253a3.734 3.734 0 012.774 1.078c.462.179.612-.205 1.074-.025l.313.563c-1.209 1.742-.27 3.434-.405 5.151l-1.223.409c-1.074.025-.91.973-1.209 1.742-1.074.025-1.999-.334-2.909.639 0 0-.462-.18-.612.205l.463.179s.149-.384.611-.204c.463.179.776.743 1.238.923l-1.835.614c-.612.204-.761.589-1.06 1.357-.298.769-.746 1.922-2.282 1.767-.612.205-1.224.409-1.373.794.164.948.327 1.896.954 3.024 0 0-.463-.18-.612.205l.149-.385c.463.18.462.18.775.744.314.564.776.744 1.537.155 0 0 .462.179.612-.205-.15.384-.911.973-1.06 1.358-.612.204-1.223.409-1.373.793.328 1.897.328 1.897-1.045 2.69-.761.589-1.209 1.742-2.283 1.767-.611.205-.135 1.717.477 1.512 1.074-.025 2.312.898 2.625 1.462l-.597 1.538-.925-.36c-.775-.743-1.551-1.487-2.924-.693-.149.384.313.564.015 1.332-1.074.025-2.148.05-3.685-.104-.448 1.152.328 1.896.641 2.46l-.597 1.537c-.15.384-.612.205-.612.205-1.686.229-2.745 1.587-3.343 3.124-.298.769.94 1.692 1.551 1.487 1.835-.614 4.147.285 6.146.619 1.074-.025 1.82-1.947 4.132-1.048-.597 1.537-1.507 2.51-3.655 2.56-.135 1.717 3.087 1.642 2.489 3.179-1.536-.155-2.923-.694-3.549-1.821-.313-.564-1.238-.924-1.536-.155.313.564.626 1.128.789 2.076.313.564.164.948.627 1.128 2.311.898 2.952 3.359 5.114 4.641.463.18.626 1.128.015 1.333-1.074.025-1.686.229-2.596 1.202-.149.385-.911.974-1.522 1.178 2.326 2.231 4.19 4.282 6.964 5.36.462.18.925.359 1.536.155 1.686-.23 3.834-.28 5.371-.125.611-.205 1.074-.025 1.685-.23 1.835-.614 3.223-.075 4.162 1.617l1.565 2.82c-.149.384-.448 1.152-1.209 1.741.313.564.775.744 1.088 1.308 4.431-1.817 9.012-4.018 13.905-5.655l1.878 3.383c1.224-.409 2.909-.639 3.521-.843l.925.359 1.565 2.82c.626 1.128 1.85.718 2.476 1.846.313.564 1.849.719 2.625 1.462.163.949-.598 1.537-1.046 2.69-.298.769-1.059 1.358-1.358 2.126-.597 1.538-1.507 2.511-3.342 3.125-2.582 2.535-6.103 3.379-9.31 4.786-.612.205-1.224.41-1.522 1.178-.598 1.537-1.508 2.511-3.343 3.125 0 0-.149.384-.612.204-1.372.794-1.358 2.126-.12 3.05.462.179.775.743 1.238.923-.15.384-.612.204-.761.589.014 1.332-.434 2.485-1.195 3.074.477 1.512 1.416 3.204 1.893 4.716 1.387.539 2.774 1.078 4.325 2.565-.149.385-.299.769-.91.974l-2.447.818c-1.223.409-1.984.998-2.283 1.767.313.564.626 1.128 1.401 1.871-.761.589-1.372.794-1.521 1.178-.299.769 1.102 2.64 2.027 3 .463.179.925.359 1.074-.025 1.373-.794 3.222-.075 4.46.848.775.743 2.163 1.282 2.938 2.026.612-.205 1.686-.23 2.297-.434 1.238.923 1.402 1.871 1.715 2.435-.299.769-1.223.409-1.835.614-1.835.614-3.208 1.407-5.52.509-.462-.179-1.074.025-1.685.23-1.224.409-2.298.434-3.521.844-.612.204-1.373.793-1.984.998-.448 1.153 1.55 1.487.178 2.281.462.179.313.563.775.743 1.387.539 2.924.694 4.147.284 2.76-.254 5.057-.689 7.981.005 2.923.694 5.683.439 8.592-.2l3.222-.075c1.536.155 2.461.514 3.998.668 1.074-.025 1.536.155 2.461.514-.15.385-.761.589-.299.769.939 1.692.655 3.793 2.668 5.46 1.387.539 2.774 1.078 3.685.104.91-.973 1.209-1.741-.044-3.997 1.074-.025 1.686-.23 2.312.898.313.564.626 1.128 1.089 1.308l.939 1.691-.896 2.306c-.299.769-.597 1.537.029 2.665.313.564.163.948.477 1.512.327 1.897.192 3.614-.554 5.535-1.508 2.51-3.016 5.021-4.836 6.967-1.97 2.331-3.328 4.457-4.836 6.968l-2.731 2.919c-2.283 1.767-4.103 3.714-6.386 5.48-1.821 1.947-4.566 3.534-6.237 5.096-3.044 2.356-6.714 3.584-10.071 5.376-2.134 1.382-4.73 2.585-6.401 4.147-2.283 1.767-5.342 2.79-7.938 3.993-3.058 1.024-5.192 2.406-7.475 4.173-.149.384-.611.205-.761.589-1.358 2.126-1.358 2.126-3.342 3.124-.15.384.164.948.164.948.163.949-.135 1.717-1.359 2.127-1.223.409-2.596 1.202-3.506 2.176-.761.589-.91.973-.747 1.921.164.948-.597 1.537-1.208 1.742-1.224.409-1.985.998-3.208 1.408-2.447.818-5.356 1.457-7.966 1.327-.463-.179-.612.205-1.074.025-1.999-.334-3.834.28-5.52.51-1.835.614-3.983.664-5.818 1.278-2.909.639-5.669.893-7.802 2.276-2.611-.13-4.133 1.048-6.43 1.482-2.297.435-4.132 1.049-5.967 1.663l-9.176 3.069c-2.446.819-5.355 1.458-7.951 2.661-.761.589-2.149.05-3.059 1.023-.761.589-1.984.998-3.207 1.407-1.224.41-1.985.999-3.208 1.408l-1.835.614c-2.909.639-5.043 2.021-7.49 2.84-4.879 2.97-11.01 3.684-16.365 5.141l-10.563 2.531c-.91.973-2.759.255-4.132 1.048-.91.974-2.909.639-4.132 1.049-1.224.409-2.91.638-4.133 1.048-1.223.409-2.447.818-3.208 1.407-2.133 1.383-4.58 2.201-6.877 2.636-3.521.843-6.579 1.867-9.951 2.326-.597 1.537-1.507 2.51-3.193 2.74-3.521.844-7.191 2.071-10.712 2.915-.462-.18-.611.205-1.074.025-3.52.844-7.503 1.508-11.024 2.351-2.909.639-5.818 1.278-8.578 1.533-.925-.36-1.223.409-1.835.614-.313-.564-.313-.564-.925-.36l-.298.769c-4.133 1.048-8.116 1.712-12.711 2.581-5.206 1.073-10.099 2.71-15.619 3.22-1.074.025-2.447.818-3.67 1.227-1.223.41-1.835.614-2.909.639-1.223.41-2.76.255-4.445.485-3.521.843-7.355 1.123-11.338 1.787-3.371.459-6.892 1.303-10.264 1.762-2.297.434-4.594.869-7.205.739-1.074.025-2.61-.13-3.684-.105-.612.205-1.537-.154-1.686.23-.91.973-1.835.614-2.909.639-2.148.05-2.148.05-2.326-2.231.761-.589 1.835-.614 2.596-1.203 1.372-.793 2.909-.638 4.758.08.463.18 1.387.539 1.999.334 2.909-.639 5.207-1.073 7.653-1.891l.612-.205c.298-.769.448-1.153.284-2.101l-.925-.36c-4.296.1-8.13.38-12.426.48-2.759.255-5.221-.259-7.98-.004l-6.445.15c-1.074.025-1.536-.155-2.61-.13l.299-.769c.149-.384.298-.768-.164-.948-.313-.564-.775-.743-1.238-.923-.462-.18-1.074.025-1.536-.155-2.611-.129-4.759-.079-7.234-1.926-.15.384-.911.973-1.06 1.358-3.684-.105-7.369-.21-11.665-.11-.612.205-1.536-.154-2.461-.513-.925-.36-1.238-.924-2.163-1.283-.462-.18-1.536-.155-2.461-.514.612-.205.761-.589.911-.973.761-.589 1.372-.794 1.209-1.742-.314-.564-.015-1.332.597-1.537 1.835-.614 1.671-1.562 1.657-2.895.149-.384.298-.768-.015-1.332-.626-1.128-2.013-1.667-3.251-2.59-.462-.18-.924-.36-1.536-.155-1.537-.155-2.611-.13-3.834.28-.462-.18-1.536-.155-1.999-.335-.924-.359-.924-.359-1.252-2.255 1.835-.614 3.208-1.408 2.88-3.304-.327-1.897-.655-3.793-3.578-4.487 1.686-.23 2.297-.434 3.058-1.023 1.373-.794 1.358-2.126-.029-2.665-1.387-.539-3.236-1.258-4.922-1.028-1.536-.155-2.76.255-4.445.484-.463-.179-.925-.359-1.7-1.103.149-.384-.314-.564-.314-.564 1.06-1.357 1.508-2.51 2.568-3.867-1.7-1.103-2.177-2.616-2.042-4.332.149-.385.448-1.153.91-.974 1.223-.409 1.671-1.562 2.119-2.715l-.939-1.691c-4.46-.849-8.607-1.133-12.903-1.033-1.074.025-2.76.255-3.834.28-.313-.564-.163-.948.299-.769 1.074-.025 1.686-.229 2.76-.254 1.685-.23 2.909-.639 3.357-1.792-.313-.564-.477-1.513-.79-2.076.149-.385.448-1.153 1.059-1.358 1.224-.409 1.522-1.178 1.359-2.126l.448-1.153c1.074-.025 2.297-.434 2.909-.639 1.074-.025 1.835-.614 2.133-1.382.299-.769-.014-1.333-.64-2.461-1.537-.154-3.073-.309-3.983.664-.911.973-2.596 1.203-3.983.664-1.85-.718-3.222.075-4.133 1.048-1.074.025-1.536-.154-2.61-.129-.925-.36-1.537-.155-2.76.254-1.223.41-2.297.435-3.834.28-3.834.28-7.518.175-11.352.455-1.074.025-1.835.614-2.909.639-1.074.025-1.835.614-2.61-.13-.463-.18-1.074.025-1.074.025-2.134 1.383-5.207 1.073-7.504 1.508-3.983.664-7.817.943-11.651 1.223-1.074.025-2.297.434-3.52.843l-2.447.819c-.612.205-1.074.025-1.373.794-.149.384-.761.589-1.223.409-1.537-.155-3.535-.489-5.534-.823-1.999-.335-3.535-.489-5.221-.26-1.074.025-2.297.435-3.684-.104.149-.384.298-.769 1.059-1.358-2.475-1.846-4.489-3.513-7.86-3.054-.313-.564-1.088-1.307-1.402-1.871-.924-.359-1.998-.334-2.61-.13-.612.205-1.536-.154-1.849-.718-.776-.744-1.238-.924-2.312-.899-1.537-.154-2.611-.129-3.848-1.052-.626-1.128-.328-1.897.433-2.486 1.06-1.357 1.508-2.51 1.18-4.407-.164-.948.135-1.716 1.045-2.69 1.672-1.562 1.359-2.126-.043-3.997-.313-.564-1.088-1.308-1.7-1.103-.925-.359-1.999-.334-2.611-.13-.462-.179-1.073.025-1.685.23-3.222.075-3.386-.873-3.863-2.386l-.626-1.127c-2.475-1.847-4.787-2.745-7.696-2.106-.612.204-1.074.025-1.537-.155-1.849-.718-3.386-.873-5.384-1.207-2.611-.13-4.46-.848-5.712-3.104-.776-.744-1.089-1.308-2.476-1.847-.925-.359-1.088-1.307-.327-1.896.91-.973 2.282-1.767 3.506-2.176.761-.589 1.059-1.358.896-2.306-.164-.948.135-1.717.433-2.485.135-1.717-.491-2.845-2.34-3.564-1.85-.718-3.386-.873-5.236-1.592l-2.311-.898c-1.238-.923-3.088-1.642-4.475-2.18-.462-.18-1.387-.539-2.162-1.283-1.402-1.871-3.102-2.974-3.892-5.05-.626-1.128-1.252-2.256-2.639-2.795-.462-.18-.776-.744-1.089-1.308-.178-2.28.882-3.638 2.717-4.252l2.283-1.767c.761-.589 1.984-.998 3.058-1.023 1.224-.409 1.985-.998 3.044-2.356-2.774-1.078-5.249-2.924-8.308-1.901-.925-.359-1.238-.923-1.7-1.103l.597-1.537c.448-1.153 1.359-2.126 1.344-3.458-.014-1.333.747-1.922 1.657-2.895 3.506-2.176 7.326-3.788 10.832-5.965.761-.589 2.297-.434 3.058-1.023 1.224-.409 1.522-1.178.285-2.101-.314-.564-1.238-.923-1.701-1.103-3.371.46-5.49 3.175-9.175 3.07-.164-.948-.79-2.076-.953-3.024-.612.204-1.074.025-1.686.229-2.447.819-4.431 1.817-6.728 2.251-1.224.41-1.985.999-1.97 2.331l-.747 1.922c-.149.384-.299.768.014 1.332.164.948-.448 1.153-1.208 1.742-.612.205-1.537-.155-1.85-.719-.626-1.127-1.401-1.871-2.028-2.999 1.06-1.357.583-2.87 2.105-4.048.15-.384.448-1.152.135-1.716-.477-1.513.12-3.05 1.031-4.023l.15-.384c-1.09-1.308-.179-2.281-.656-3.793-.462-.18-.775-.744-1.237-.923-2.476-1.847-2.476-1.847-5.385-1.208-.164-.948.448-1.153 1.06-1.357l4.893-1.638c3.058-1.023 6.117-2.046 9.637-2.89 3.67-1.228 7.191-2.071 10.399-3.479.612-.204.761-.589.761-.589.149-.384-.313-.564-.776-.743-.924-.359-1.849-.719-2.923-.694-.462-.179-1.387-.539-1.999-.334-.313-.564-.313-.564-.164-.948l-.939-1.692c-.775-.744-1.849-.719-2.461-.514-1.223.409-1.984.998-3.207 1.407-.761.589-1.835.614-2.596 1.203-1.835.614-3.521.844-5.356 1.458s-2.895 1.971-4.267 2.765c-.761.589-1.522 1.178-2.91.639-1.237-.923-1.401-1.872-1.103-2.64.3-.769.91-.973 1.985-.998l3.67-1.228c1.835-.614 3.357-1.792 5.356-1.458l1.835-.614 1.835-.614c1.998.335 2.909-.639 4.281-1.432 1.224-.409 1.672-1.562 1.046-2.69-.164-.948-.79-2.076-1.416-3.204-.627-1.128-1.551-1.487-2.938-2.026-.477-1.512-.029-2.665.881-3.639.91-.973 2.432-2.151 4.431-1.816 1.074-.025 1.686-.23 2.76-.255 2.297-.434 3.983-.664 6.295.234.462.18 1.074-.025 1.536.155l11.502-.839c2.148-.05 3.983-.664 6.131-.714 4.908-.305 9.502-1.173 14.097-2.042 2.297-.434 4.595-.869 6.729-2.251.611-.205.761-.589 1.059-1.358-2.162-1.282-4.474-2.18-6.921-1.362-1.686.23-3.058 1.023-4.758-.079l2.446-.819c1.686-.23 3.521-.844 5.207-1.073 2.909-.639 5.505-1.842 8.414-2.481 2.297-.434 4.282-1.433 6.266-2.431 1.373-.793 2.745-1.587 4.431-1.817 1.223-.409 1.223-.409 2.283-1.766-.313-.564-.775-.744-1.85-.719-3.833.28-7.816.944-11.486 2.171-1.835.614-3.521.844-4.894 1.638-.612.204-1.223.409-1.686.229-2.148.05-3.983.664-6.28 1.099-2.909.638-5.356 1.457-8.578 1.532-.313-.564.299-.769.299-.769l7.34-2.455c.612-.205 1.223-.41 2.297-.435 2.76-.254 5.207-1.073 7.027-3.019.15-.385 1.373-.794 1.985-.999.149-.384.298-.768.91-.973-.164-.948-1.238-.923-1.85-.718-1.685.229-3.52.843-4.744 1.253-1.372.793-3.058 1.023-4.594.868-1.074.025-2.298.434-3.372.459-.612.205-1.074.025-1.999-.334.911-.973 2.596-1.203 3.357-1.792 1.224-.409 2.447-.818 2.895-1.971-.313-.564-.775-.744-1.387-.539-1.074.025-1.686.23-2.298.434-1.685.23-3.52.844-5.668.894-1.074.025-1.686.229-2.909.639-2.298.434-4.133 1.048-5.968 1.662-3.983.664-7.191 2.071-11.174 2.735-.611.205-1.835.614-2.759.255-.463-.18-.925-.359-.776-.743-.313-.564-.163-.949-.014-1.333s.761-.589 1.372-.794c3.521-.843 6.416-2.815 9.937-3.658 1.223-.41 2.446-.819 3.357-1.792.761-.589 1.984-.998 2.595-1.203 1.224-.409 3.059-1.023 4.745-1.253 1.685-.23 2.596-1.203 3.193-2.74-.313-.564-1.089-1.307-1.402-1.871-.462-.18-.462-.18-1.074.025-5.355 1.457-10.562 2.53-15.918 3.988-.611.205-1.074.025-1.685.23-1.686.229-2.148.05-2.938-2.027 3.67-1.227 6.877-2.635 9.146-5.734l-.925-.36c-3.073-.309-5.519.51-8.279.764-1.686.23-2.909.639-4.445.485.448-1.153 2.596-1.203 3.357-1.792 2.596-1.203 5.505-1.842 7.788-3.609.761-.589 1.984-.998 2.596-1.203 1.835-.614 3.67-1.228 3.954-3.329l.896-2.305c-.79-2.077-2.64-2.795-4.788-2.745-2.148.05-4.146-.284-5.996-1.003-.925-.359-1.999-.334-3.073-.309-1.685.229-3.535-.489-4.474-2.181-.775-.744-1.401-1.871-1.714-2.435-.627-1.128-1.402-1.872-2.028-3-1.074.025-1.536-.154-2.148.05-1.224.41-2.611-.129-3.848-1.053.761-.589 1.059-1.357 1.82-1.946-.477-1.512-.953-3.024-.356-4.562.299-.768-.015-1.332-.178-2.28-.015-1.333.433-2.486 1.657-2.895.611-.205 1.521-1.178 2.133-1.383.761-.589.284-2.101-.64-2.46-.925-.359-1.999-.334-2.611-.13-1.536-.154-2.76.255-4.296.1-1.686.23-3.222.075-4.609-.463-1.387-.539-2.774-1.078-2.789-2.411-.163-.948-1.7-1.103-2.326-2.231.91-.973 1.82-1.946 3.044-2.355 1.835-.614 3.208-1.408 3.343-3.125-.776-.743-1.402-1.871-2.177-2.615-1.7-1.103-3.372.46-5.833-.054 1.224-.41 1.985-.999 2.746-1.588l.149-.384c.284-2.101-.03-2.665-2.34-3.563l-1.388-.539c-.462-.18-1.387-.539-1.999-.334-.775-.744-.477-1.513-.178-2.281.299-.769 1.06-1.358.747-1.922-.015-1.332.135-1.716 1.358-2.126.612-.204.76-.589.91-.973.91-.973 1.671-1.562 3.357-1.792 2.148-.05 4.133-1.048 5.818-1.278l-.462-.179c1.686-.23 3.222-.075 5.057-.689 1.835-.614 3.521-.844 5.206-1.074 1.224-.409 2.298-.434 3.357-1.791.911-.974 2.447-.819 3.521-.844.612-.205 1.537.155 2.148-.05 1.074-.025 2.298-.434 3.222-.075.463.18.463.18 1.074-.025 2.76-.255 5.982-.33 8.891-.969.612-.204 1.686-.229 2.148-.05.463.18.463.18 1.074-.025 4.744-1.252 9.965-.993 14.709-2.246l1.835-.614c1.537.155 2.76-.255 3.67-1.228 1.373-.794 2.597-1.203 4.595-.869 1.537.155 2.611.13 3.834-.279 1.835-.614 4.132-1.048 6.43-1.483 1.223-.409 2.447-.818 3.357-1.792-.313-.564-.776-.743-1.387-.538-2.148.05-4.296.099-6.594.534-1.686.229-3.834.279-5.519.509-.612.205-2.148.05-3.073-.309-1.387-.539-2.461-.514-3.535-.489-1.074.025-1.686.23-2.76.255-.462-.18-1.074.025-1.387-.539-.776-.744-1.85-.719-2.148.05-1.06 1.357-3.058 1.023-4.744 1.253-2.013-1.667-4.147-.285-5.996-1.003-.463-.18-.612.204-1.075.025-4.744 1.253-9.651 1.557-14.246 2.426-.612.204-1.074.025-1.537-.155-3.698-1.437-7.219-.593-10.278.43l-1.223.409c-1.999-.334-3.684-.104-5.37.125-2.76.255-5.057.689-7.817.944-1.686.229-3.371.459-4.744 1.253-.15.384-.612.204-1.686.229-.313-.564-.163-.948-.477-1.512-.476-1.512-1.102-2.64-2.34-3.563-1.387-.539-1.089-1.308-.328-1.897 3.969-1.996 4.58-2.201 9.638-2.89 2.909-.639 6.131-.714 9.04-1.352l5.057-.689c.612-.205 1.074-.025 1.537.154.462.18 1.536.155 2.148-.05 1.984-.998 4.445-.484 6.593-.534 1.074-.025 1.686-.23 2.76-.255 1.835-.614 3.983-.664 6.131-.714 1.074-.025 2.76-.254 3.834-.279.462.179.611-.205 1.223-.41 3.386.873 6.594-.534 9.816-.609 1.536.155 3.371-.459 4.595-.869 2.909-.639 5.818-1.278 9.04-1.353 3.834-.279 7.817-.943 11.65-1.223.612-.205 1.686-.23 2.298-.434 3.521-.844 6.43-1.483 10.263-1.762 1.686-.23 3.059-1.024 4.118-2.381.15-.384.299-.769-.014-1.333l-.939-1.691c-7.056.354-14.261 1.093-21.317 1.448-1.074.025-1.686.229-2.76.254-2.297.435-5.057.689-7.817.944s-5.057.689-7.817.944c-.611.204-1.685.229-2.148.05-5.37.125-10.278.429-15.335 1.118-2.297.435-4.445.485-6.593.535-2.76.254-5.058.689-7.817.943-2.76.255-5.057.689-7.966 1.328-1.686.23-3.372.46-4.595.869-1.103-2.64-1.566-2.82-3.877-3.718-.925-.359-1.387-.539-2.461-.514-2.447.819-5.37.125-7.668.559-1.223.41-2.91.639-3.82 1.612-.76.589-1.984.999-2.745 1.588-1.863-2.051-1.878-3.384.106-4.382l1.835-.614c.761-.589 1.224-.409 2.298-.434 1.536.154 2.61.129 3.371-.46 1.224-.409 1.985-.998 3.372-.459.924.359 1.835-.614 2.446-.819.761-.589 1.835-.614 2.76-.254.462.179 1.074-.025 1.074-.025 1.373-.794 2.909-.639 4.595-.869 2.61.13 5.057-.689 7.354-1.123 1.224-.409 2.596-1.203 3.969-1.997.612-.204.761-.589 1.373-.793 2.297-.435 4.758.079 7.219.593.925.36 1.85.719 2.461.514 1.537.155 3.536.489 5.371-.125 2.297-.434 5.057-.689 7.667-.559 1.686-.23 3.222-.075 4.908-.305 1.686-.229 3.222-.075 4.908-.304 1.686-.23 3.371-.46 4.744-1.253.612-.205.91-.974 1.06-1.358-2.625-1.462-4.923-1.028-7.071-.978-.611.205-1.685.23-2.148.05-.611.205-1.074.025-1.536-.154l.746-1.922 5.057-.689c1.224-.409 2.924.694 4.297-.1 1.998.335 3.52-.843 5.668-.893 2.148-.05 4.147.284 5.833.054l5.057-.689c.612-.204 1.223-.409 1.686-.229 1.998.334 3.371-.46 4.431-1.817-.313-.564-.164-.948-.328-1.897.911-.973 1.985-.998 3.208-1.407.612-.205 1.223-.409 1.686-.23 1.074-.025 1.372-.793 1.209-1.742-2.938-2.026-2.938-2.026-5.833-.054 2.312.898 1.238.923.164.948zm412.879 187.841l-.15.385c-.462-.18-.313-.564.15-.385l.611-.204c-.462-.18-.611.204-.611.204zm-39.111-167.791l-2.312-.898c-.462-.18-1.074.025-1.223.409-.149.384.313.564.776.744 1.237.923 2.311.898 2.759-.255.463.18.463.18.612-.205-.149.385-.149.385-.612.205zM102.242 366.385c.612-.205 1.075-.025 1.686-.23l6.729-2.251c3.058-1.023 5.803-2.611 9.488-2.506 1.074-.025 2.446-.819 3.67-1.228.611-.205 1.373-.793 1.984-.998 3.059-1.023 5.967-1.662 9.488-2.506.612-.205.761-.589 1.522-1.178l-1.387-.539-1.835.614c-.761.589-1.373.794-2.447.819-1.074.025-1.685.229-2.759.254-1.686.23-3.372.46-5.207 1.074-1.059 1.357-2.596 1.203-4.281 1.432-.463-.179-1.074.025-1.224.41-4.281 1.432-8.563 2.865-12.383 4.477-.611.204-1.372.793-2.133 1.382-1.074.025-.761.589-.911.974-.611.204-.611.204 0 0-.149.384-.611.204 0 0zm152.343 94.132s-.149.385 0 0c0 0-.149.385 0 0 1.074-.025 1.686-.229 2.76-.254.925.359 1.536.154 2.148-.05 3.983-.664 8.13-.38 12.277-.096.462.18 1.074-.025 1.685-.229 1.224-.41 2.298-.435 3.521-.844 1.224-.409 1.224-.409.896-2.306l-1.849-.718c-.463-.18-.925-.36-1.074.025-.911.973-2.909.639-4.133 1.048l-12.888.3c-1.074.025-1.686.23-2.76.255-.612.204-1.074.025-1.686.229-.611.205-.761.589-.448 1.153 1.089 1.308 1.551 1.487 1.551 1.487zm104.244-294.323c1.224-.409 2.91-.639 4.133-1.048.612-.204 1.223-.409 1.685-.23 3.073.31 5.669-.893 8.116-1.712 1.074-.025 1.835-.614 2.909-.639 3.073.31 6.131-.714 9.04-1.353 1.686-.229 3.521-.843 5.356-1.457.612-.205.761-.589.448-1.153.149-.384-.626-1.128-1.238-.923-1.536-.155-3.684-.105-5.37.125-1.223.409-2.909.639-4.595.868-1.685.23-3.058 1.024-4.595.869-.462-.18-1.685.23-2.297.434-1.373.794-2.447.819-3.983.664-1.074.025-1.536-.154-2.76.255-1.835.614-4.132 1.048-5.967 1.662-.612.205-1.223.409-1.686.23-3.222.075-5.982.329-9.204.404-2.148.05-4.445.485-6.593.535-1.686.229-3.834.279-5.207 1.073-1.835.614-3.521.844-5.206 1.073-2.909.639-5.818 1.278-8.578 1.533-2.297.434-3.983.664-6.131.714-1.074.025-2.148.05-2.447.818-.612.205-1.223.41-1.686.23-3.222.075-6.757-.414-9.502 1.173l-1.224.41c-2.759.254-5.668.893-8.428 1.148l-1.835.614c.313.564.626 1.128 1.088 1.307 2.462.514 4.61.464 6.907.03 3.983-.664 7.354-1.123 11.651-1.223 3.222-.075 5.981-.33 8.577-1.533 1.985-.998 4.133-1.048 6.594-.534.925.359 1.999.334 2.76-.255 1.223-.409 1.685-.229 2.759-.254 2.149-.05 4.297-.101 5.982-.33 1.835-.614 3.67-1.228 5.968-1.662 2.297-.435 5.057-.689 7.504-1.508 1.998.334 4.758.08 7.055-.355zM186.55 172.68c.015 1.333.477 1.513 1.402 1.872 2.461.514 5.384 1.207 7.98.005 1.373-.794 3.059-1.024 4.908-.305 2.312.898 3.685.104 5.52-.509.611-.205.761-.589.761-.589l.298-.769c-.462-.18-.775-.744-.775-.744l-9.666.225c-.612.205-1.074.026-1.537-.154-3.222.075-5.982.33-8.891.968zm14.748 15.461c.939 1.692.939 1.692 1.863 2.051 3.237 1.258 6.921 1.362 10.293.903.611-.205 1.223-.409 1.984-.998.612-.205.761-.589.448-1.153l-.626-1.128c-2.148.05-4.147-.284-6.295-.234-2.61-.13-4.908.304-7.667.559zm55.349 264.331c.64 2.461.64 2.461 3.251 2.59 1.536.155 3.072.31 4.758.08 1.686-.23 3.834-.28 5.52-.509 1.074-.025 1.835-.614 1.522-1.178-.313-.564-1.089-1.308-2.163-1.283-.462-.179-.612.205-1.074.025-1.074.025-2.148.05-3.834.28-1.685.23-3.371.459-5.071-.644-1.074.025-2.148.05-2.909.639zm-43.708-280.596c.313.564.775.743 1.088 1.307 1.7 1.103 3.237 1.258 4.923 1.028.611-.205 1.685-.23 2.148-.05 1.387.539 2.61.13 3.684.105l.612-.205.597-1.537-1.387-.539c-2.148.05-3.685-.105-5.833-.055-1.074.025-2.61-.129-3.833.28-.776-.744-1.388-.539-1.999-.334zm-96.994 212.659c.626 1.128 1.252 2.256 2.027 2.999 1.999.335 2.909-.638 3.819-1.612.299-.768.598-1.537-.178-2.28-.775-.744-1.55-1.488-2.624-1.463-1.224.41-2.134 1.383-3.044 2.356zm27.096-20.433c-2.148.05-3.535-.489-4.907.305-1.224.409-2.447.818-3.372.459-2.312-.898-4.609-.464-6.444.15 0 0-.149.384-.761.589l.925.359c2.148-.05 3.684.105 5.37-.125 1.074-.025 2.297-.434 3.222-.075 1.536.155 2.76-.255 4.445-.484.612-.205.761-.589 1.522-1.178zm235.184-206.737c-1.7-1.103-3.087-1.642-4.773-1.412-1.223.409-1.984.998-2.432 2.151.462.18 1.387.539 1.998.334 1.537.155 2.76-.255 5.207-1.073zm146.564 28.196c-1.238-.924-2.774-1.078-3.997-.669-.463-.18-.299.769-.448 1.153-.15.384.163.948.775.743 1.387.539 2.611.13 3.67-1.227zm8.963 5.694c.149-.385-.626-1.128-1.088-1.308l-1.835.614c-.612.205-.448 1.153.014 1.333 1.238.923 2.461.513 2.909-.639zm-294.275-20.568c-1.238-.924-2.461-.514-3.998-.669-.462-.18-1.536-.155-1.686.23.164.948.925.359 1.388.539 2.311.898 3.535.489 4.296-.1zm287.627 129.446c-1.074.025-1.537-.155-2.148.05l-.299.768s.313.564.776.744c.924.359 1.223-.41 1.671-1.562zm94.812 81.953c.313.564.626 1.128 1.088 1.307.463.18.925.36 1.075-.025l.298-.768s-.313-.564-.775-.744c-.612.205-1.074.025-1.686.23zM214.133 168.801c-.924-.359-1.849-.718-3.222.075 1.999.335 1.999.335 3.222-.075zm17.691 3.778c-.627-1.128-1.701-1.103-2.312-.899l-.299.769s.313.564.776.743l1.835-.613zm63.281-9.471c.149-.384.149-.384-.313-.564l-.462-.179-.15.384.925.359zm-34.302 304.691l-.612.204.463.18.149-.384c.313.564 0 0 0 0zm309.991-285.594s-.462-.18-.611.204l-.15.385.463.179c.611-.204.611-.204.298-.768zm-41.651 8.586c-.149.384-.149.384 0 0l-.612.204.463.18c.462.18.462.18.149-.384zM157.101 301.892l-.462-.18-.462-.179c.462.179.313.563.924.359-.149.384 0 0 0 0zm-39.154-129.328c-2.297.434-4.133 1.048-6.444.15-.925-.36-1.686.229-2.76.254-2.76.255-5.52.51-8.742.585-1.074.025-1.835.614-3.072-.31l.149-.384c3.521-.844 6.892-1.303 10.562-2.531.925.359 2.163 1.283 3.386.873 2.61.13 5.071.644 6.921 1.363zm462.654-6.011l.924.36c.939 1.691-.732 3.254.207 4.945-1.522 1.178-2.119 2.715-3.954 3.329-.313-.563-.313-.564-.164-.948 1.821-1.946 2.254-4.432 2.987-7.686zm-22.897-2.703c2.312.898 4.012 2.001 5.399 2.54.626 1.128.477 1.512-.747 1.921l-4.161-1.617c-.313-.564-.477-1.512-.491-2.844z" fill="#F4F5F7"/><path d="M585.531 267.546c-.598 1.537-1.045 2.69-2.418 3.483-.626-1.127-1.252-2.255-2.49-3.179 1.671-1.562 2.76-.254 4.908-.304zM100.089 380.144s.15-.384-.313-.564c.15-.384-.014-1.332 1.06-1.357l.925.359c.775.744.626 1.128-.135 1.717-.299.768-1.224.409-1.537-.155zm449.336-215.531c.775.744 1.088 1.308 1.714 2.436l-3.236-1.258c-.015-1.332 1.223-.409 1.522-1.178zM105.276 391.448c.164.948.014 1.333-.135 1.717-.612.205-1.223.409-1.537-.155-.626-1.127.448-1.152 1.672-1.562zm174.942-228.374c1.223-.41 2.297-.435 3.371-.46l.313.564c-.149.385-.761.589-1.059 1.358-.776-.744-1.7-1.103-2.625-1.462zm112.836-11.005c-.91.973-1.835.614-3.52.843.91-.973 1.984-.998 3.52-.843zM288.81 162.874c-.612.204-1.536-.155-2.461-.514 1.074-.025 1.686-.23 2.447-.819-.299.769.014 1.333.014 1.333zM575.329 303.39c.925.359 1.238.923.939 1.691 0 0-.149.385-.612.205-.462-.18-.462-.18-.313-.564.15-.384-.163-.948-.014-1.332zM163.605 463.207c-.612.204-.761.589-1.536-.155l.149-.384c.761-.589 1.223-.41 1.387.539zm416.748-191.923c-.298.769-.597 1.537-1.671 1.562-.164-.948 1.373-.793 1.671-1.562-.149.384-.149.384 0 0zm19.693 75.324c.149-.384.448-1.153 1.059-1.357.164.948-.447 1.152-1.059 1.357zM90.727 365.891l.924.359-.15.384-.461-.179-.314-.564zm492.15-102.472s.462.179 0 0c.313.563.164.948.164.948-.612.204-.925-.36-.776-.744l.612-.204zm-436.442-81.998c.299-.768.91-.973 1.372-.793-.149.384-1.223.409-1.372.793zm207.968-27.119c-.149.385-.448 1.153-1.372.794.611-.205 1.223-.409 1.372-.794zm-206.595 26.326c.462.179 1.074-.025 1.536.154-.612.205-1.074.025-1.536-.154zm482.536 200.31l.15-.385.463.18c-.463-.18-.613.205-.613.205z" fill="#F4F5F7"/><path d="M630.345 380.938c-.463-.18-1.075.025-1.537-.155.462.18 1.074-.025 1.537.155zm-480.738-62.497c-.462-.18 0 0 0 0-.612.204-.612.204-1.074.025.611-.205.612-.205 1.074-.025zM427.139 153.37s.149-.385.612-.205c0 0-.15.384.313.564l-.925-.359zm-33.473-1.505c.613-.206.463.18 0 0 .613-.206.613-.206.463.18.15-.386 0 0-.463-.18zM576.25 274.997c.149-.385.76-.589.91-.974-.15.385-.299.769-.91.974zM471.902 162.8c.149-.384.611-.205.76-.589-.149.384-.149.384-.76.589zm-68.122-12.312l.613-.206-.613.206zm-10.114 1.376l-1.223.409 1.223-.409zm-7.041 1.687c.462.18.611-.204 1.074-.025-.463-.179-.925-.359-1.074.025zm-3.372.46l1.223-.409-1.223.409zm-13.649.889l-.15.385c-.313-.565.15-.385.15-.385zm-6.309-1.566l-.613.205.613-.205zm-37.698 5.256l.925.359c-.313-.564-.313-.564-.925-.359zm242.484 99.079l-.611.205.298-.768c-.149.384.313.563.313.563zm12.123 14c-.313-.565-.313-.565 0 0-.313-.565-.313-.565 0 0zM290.795 161.876c-.463-.18-.463-.18 0 0-.613.205-.613.205 0 0-.15.385-.613.205 0 0zm308.639 184.936l1.224-.409-1.224.409s-.462-.179 0 0zM118.62 291.364l-.613.205c.463.18.463.18.613-.205zm-.761.589l-.613.205s.15-.385.613-.205zM66.285 305.53c.15-.386 0 0 0 0s.463.179 0 0zm-1.075.025l.614-.205s-.15.385-.613.205zm327.4 202.398l-1.224.409.299-.768.925.359zm76.873-341.668c.15-.385.15-.385.613-.205l-.15.385-.463-.18z" fill="#F4F5F7"/></svg>